<?xml version="1.0" encoding="UTF-8" standalone="no"?>
<svg
   xmlns:dc="http://purl.org/dc/elements/1.1/"
   xmlns:cc="http://creativecommons.org/ns#"
   xmlns:rdf="http://www.w3.org/1999/02/22-rdf-syntax-ns#"
   xmlns:svg="http://www.w3.org/2000/svg"
   xmlns="http://www.w3.org/2000/svg"
   xmlns:xlink="http://www.w3.org/1999/xlink"
   xmlns:sodipodi="http://sodipodi.sourceforge.net/DTD/sodipodi-0.dtd"
   xmlns:inkscape="http://www.inkscape.org/namespaces/inkscape"
   width="282.943"
   height="337.597"
   viewBox="0 0 282.943 337.597"
   version="1.1"
   id="svg356"
   sodipodi:docname="Fitness.svg"
   inkscape:version="0.92.4 (5da689c313, 2019-01-14)">
  <metadata
     id="metadata360">
    <rdf:RDF>
      <cc:Work
         rdf:about="">
        <dc:format>image/svg+xml</dc:format>
        <dc:type
           rdf:resource="http://purl.org/dc/dcmitype/StillImage" />
      </cc:Work>
    </rdf:RDF>
  </metadata>
  <sodipodi:namedview
     pagecolor="#ffffff"
     bordercolor="#666666"
     borderopacity="1"
     objecttolerance="10"
     gridtolerance="10"
     guidetolerance="10"
     inkscape:pageopacity="0"
     inkscape:pageshadow="2"
     inkscape:window-width="1366"
     inkscape:window-height="705"
     id="namedview358"
     showgrid="false"
     inkscape:zoom="1.3981168"
     inkscape:cx="148.35727"
     inkscape:cy="157.28052"
     inkscape:window-x="-8"
     inkscape:window-y="173"
     inkscape:window-maximized="1"
     inkscape:current-layer="g352" />
  <defs
     id="defs102">
    <linearGradient
       id="a"
       x1="0.5"
       y1="1"
       x2="0.5"
       gradientUnits="objectBoundingBox">
      <stop
         offset="0"
         stop-color="#6e6e6e"
         id="stop2" />
      <stop
         offset="0.995"
         stop-color="#e6e6e6"
         id="stop4" />
    </linearGradient>
    <linearGradient
       id="b"
       x1="0.5"
       y1="1"
       x2="0.5"
       y2="0.097"
       gradientUnits="objectBoundingBox">
      <stop
         offset="0.005"
         stop-color="#e6e6e6"
         id="stop7" />
      <stop
         offset="1"
         stop-color="#6e6e6e"
         id="stop9" />
    </linearGradient>
    <radialGradient
       id="c"
       cx="0.5"
       cy="0.42"
       r="0.554"
       gradientTransform="matrix(-1.206, 0, 0, 1.613, 1.105, -0.271)"
       gradientUnits="objectBoundingBox">
      <stop
         offset="0.457"
         stop-color="#790000"
         stop-opacity="0"
         id="stop12" />
      <stop
         offset="0.543"
         stop-color="#790000"
         stop-opacity="0.102"
         id="stop14" />
      <stop
         offset="0.702"
         stop-color="#790000"
         stop-opacity="0.376"
         id="stop16" />
      <stop
         offset="0.913"
         stop-color="#790000"
         stop-opacity="0.816"
         id="stop18" />
      <stop
         offset="0.995"
         stop-color="#7a0000"
         id="stop20" />
    </radialGradient>
    <linearGradient
       id="d"
       x1="-2.939"
       y1="0.5"
       x2="-1.757"
       y2="0.5"
       gradientUnits="objectBoundingBox">
      <stop
         offset="0.366"
         stop-color="#00c2ff"
         stop-opacity="0"
         id="stop23" />
      <stop
         offset="0.41"
         stop-color="#06c3ff"
         stop-opacity="0.027"
         id="stop25" />
      <stop
         offset="0.472"
         stop-color="#19c8ff"
         stop-opacity="0.102"
         id="stop27" />
      <stop
         offset="0.545"
         stop-color="#38cfff"
         stop-opacity="0.224"
         id="stop29" />
      <stop
         offset="0.627"
         stop-color="#63d9ff"
         stop-opacity="0.392"
         id="stop31" />
      <stop
         offset="0.717"
         stop-color="#9be7ff"
         stop-opacity="0.608"
         id="stop33" />
      <stop
         offset="0.81"
         stop-color="#ddf7ff"
         stop-opacity="0.871"
         id="stop35" />
      <stop
         offset="0.854"
         stop-color="#fff"
         id="stop37" />
    </linearGradient>
    <filter
       id="e"
       x="129.936"
       y="280.811"
       width="26.048"
       height="10.112"
       filterUnits="userSpaceOnUse">
      <feOffset
         dx="1.568"
         dy="1.568"
         input="SourceAlpha"
         id="feOffset40" />
      <feGaussianBlur
         result="f"
         id="feGaussianBlur42" />
      <feFlood
         flood-opacity="0.078"
         id="feFlood44" />
      <feComposite
         operator="in"
         in2="f"
         id="feComposite46"
         result="result1" />
      <feComposite
         in="SourceGraphic"
         in2="result1"
         id="feComposite48" />
    </filter>
    <filter
       id="g"
       x="63.446"
       y="0"
       width="162.445"
       height="162.445"
       filterUnits="userSpaceOnUse">
      <feOffset
         dx="3"
         dy="3"
         input="SourceAlpha"
         id="feOffset51" />
      <feGaussianBlur
         result="h"
         id="feGaussianBlur53" />
      <feFlood
         flood-opacity="0.122"
         id="feFlood55" />
      <feComposite
         operator="in"
         in2="h"
         id="feComposite57"
         result="result1" />
      <feComposite
         in="SourceGraphic"
         in2="result1"
         id="feComposite59" />
    </filter>
    <linearGradient
       id="j"
       x1="0.5"
       y1="1"
       x2="0.5"
       gradientUnits="objectBoundingBox">
      <stop
         offset="0.005"
         stop-color="#e6e6e6"
         id="stop62" />
      <stop
         offset="1"
         stop-color="#878787"
         id="stop64" />
    </linearGradient>
    <radialGradient
       id="k"
       cx="3.747"
       cy="1.347"
       r="3.242"
       gradientTransform="translate(-3.857 0.807) scale(2.028 0.399)"
       gradientUnits="objectBoundingBox">
      <stop
         offset="0.48"
         stop-color="#e6e6e6"
         id="stop67" />
      <stop
         offset="0.626"
         stop-color="#e4e4e4"
         id="stop69" />
      <stop
         offset="0.679"
         stop-color="#dedddd"
         id="stop71" />
      <stop
         offset="0.716"
         stop-color="#d3d2d1"
         id="stop73" />
      <stop
         offset="0.747"
         stop-color="#c5c2c0"
         id="stop75" />
      <stop
         offset="0.773"
         stop-color="#b1aeaa"
         id="stop77" />
      <stop
         offset="0.794"
         stop-color="#9c9792"
         id="stop79" />
      <stop
         offset="0.804"
         stop-color="#b0aca9"
         id="stop81" />
      <stop
         offset="0.818"
         stop-color="#c9c6c3"
         id="stop83" />
      <stop
         offset="0.834"
         stop-color="#dddbd9"
         id="stop85" />
      <stop
         offset="0.853"
         stop-color="#ecebea"
         id="stop87" />
      <stop
         offset="0.876"
         stop-color="#f7f6f6"
         id="stop89" />
      <stop
         offset="0.909"
         stop-color="#fdfdfd"
         id="stop91" />
      <stop
         offset="1"
         stop-color="#fff"
         id="stop93" />
    </radialGradient>
    <radialGradient
       id="l"
       cx="4.45"
       cy="1.528"
       r="3.488"
       gradientTransform="translate(-9.988 0.915) scale(3.24 0.399)"
       xlink:href="#k" />
    <radialGradient
       id="m"
       cx="2.041"
       cy="1.579"
       r="3.366"
       gradientTransform="translate(-1.844 0.946) scale(1.901 0.399)"
       xlink:href="#k" />
    <radialGradient
       id="n"
       cx="0.696"
       cy="1.635"
       r="3.427"
       gradientTransform="translate(-0.551 0.98) scale(1.786 0.399)"
       xlink:href="#k" />
    <radialGradient
       id="o"
       cx="-0.741"
       cy="1.608"
       r="3.39"
       gradientTransform="translate(0.916 0.964) scale(2.246 0.399)"
       xlink:href="#k" />
    <radialGradient
       id="p"
       cx="-1.515"
       cy="1.558"
       r="3.428"
       gradientTransform="translate(1.257 0.934) scale(1.832 0.399)"
       xlink:href="#k" />
    <radialGradient
       id="q"
       cx="-2.036"
       cy="1.45"
       r="3.518"
       gradientTransform="translate(0.981 0.869) scale(1.483 0.399)"
       xlink:href="#k" />
  </defs>
  <g
     transform="translate(-98.143 -52.974)"
     id="g354">
    <path
       d="M241.988,98.006l-126.1,45.49s15.776,103.356,27.3,165.449,98.8,84.323,98.8,84.323,87.277-22.23,98.8-84.323,27.3-165.449,27.3-165.449Z"
       transform="translate(-0.677 -2.697)"
       fill="url(#a)"
       id="path104" />
    <path
       d="M242.758,111.729,128.75,151.8s13.428,95.234,23.931,152.446,90.077,77.7,90.077,77.7,79.572-20.483,90.077-77.7S356.767,151.8,356.767,151.8Z"
       transform="translate(-1.447 -3.519)"
       fill="url(#b)"
       id="path106" />
    <g
       transform="translate(135.952 116.335)"
       id="g110">
      <path
         d="M243.309,120.372,137.95,158.089s12.472,89.99,22.172,143.587,83.187,72.786,83.187,72.786S316.8,355.272,326.5,301.676s22.172-143.587,22.172-143.587Z"
         transform="translate(-137.95 -120.372)"
         fill="#ff5900"
         id="path108" />
    </g>
    <path
       d="M243.309,120.372l105.359,37.717S336.2,248.079,326.5,301.676s-83.187,72.786-83.187,72.786-73.486-19.189-83.187-72.786S137.95,158.089,137.95,158.089Z"
       transform="translate(-1.998 -4.037)"
       opacity="0.8"
       fill="url(#c)"
       style="mix-blend-mode:multiply;isolation:isolate"
       id="path112" />
    <g
       transform="translate(203.067 320.931)"
       id="g124">
      <path
         d="M212.848,338l.794,2.713,2.713.794-2.713.794-.794,2.713-.794-2.713-2.713-.794,2.713-.794Z"
         transform="translate(-209.34 -338.003)"
         fill="#fff"
         id="path114" />
      <path
         d="M212.848,351.989l.794,2.713,2.713.794-2.713.794L212.848,359l-.794-2.713-2.713-.794,2.713-.794Z"
         transform="translate(-209.34 -338.84)"
         fill="#fff"
         id="path116" />
      <g
         transform="translate(69.475)"
         id="g122">
        <path
           d="M286.749,338l.794,2.713,2.713.794-2.713.794-.794,2.713-.794-2.713-2.713-.794,2.713-.794Z"
           transform="translate(-283.242 -338.003)"
           fill="#fff"
           id="path118" />
        <path
           d="M286.749,351.989l.794,2.713,2.713.794-2.713.794L286.749,359l-.794-2.713-2.713-.794,2.713-.794Z"
           transform="translate(-283.242 -338.84)"
           fill="#fff"
           id="path120" />
      </g>
    </g>
    <path
       d="M355.381,158.089s-12.472,89.99-22.172,143.587-83.187,72.786-83.187,72.786V120.372Z"
       transform="translate(-8.71 -4.037)"
       opacity="0.2"
       fill="url(#d)"
       id="path126" />
    <g
       transform="translate(134.027 147.466)"
       id="g136">
      <g
         transform="translate(0 0)"
         id="g130">
        <path
           d="M135.9,164.549l4.019-7.08,8.645-3.983,34.383,34.554-13.127.561,22.62,21.522-43.719-25.968,13.048-1.485Z"
           transform="translate(-135.902 -153.486)"
           fill="#090909"
           id="path128" />
      </g>
      <g
         transform="translate(158.028 0)"
         id="g134">
        <path
           d="M360.539,164.549l-4.019-7.08-8.645-3.983L313.492,188.04l13.127.561L304,210.124l43.719-25.968-13.048-1.485Z"
           transform="translate(-303.999 -153.486)"
           fill="#090909"
           id="path132" />
      </g>
    </g>
    <g
       transform="translate(216.508 313.79)"
       id="g150">
      <g
         transform="matrix(1, 0, 0, 1, -118.36, -260.82)"
         filter="url(#e)"
         id="g140">
        <path
           d="M-10.4-8.472c-1.3,0-1.812.948-1.812,2.16v.54h.528v-.576c0-.9.336-1.62,1.26-1.62.96,0,1.284.684,1.284,1.656,0,2.3-3.072,2.94-3.072,5.9V0h3.552V-.5h-3V-.6c.036-2.472,3.072-3.312,3.072-5.736C-8.592-7.56-9.1-8.472-10.4-8.472Zm5.076,6.42c0,1.224.564,2.124,1.848,2.124s1.848-.9,1.848-2.124v-4.3c0-1.236-.564-2.124-1.848-2.124s-1.848.888-1.848,2.124Zm.552-4.332c0-.912.372-1.584,1.3-1.584s1.3.672,1.3,1.584v4.356c0,.924-.372,1.6-1.3,1.6s-1.3-.672-1.3-1.6ZM3.492-8.472c-1.3,0-1.812.948-1.812,2.16v.54h.528v-.576c0-.9.336-1.62,1.26-1.62.96,0,1.284.684,1.284,1.656,0,2.3-3.072,2.94-3.072,5.9V0H5.232V-.5h-3V-.6C2.268-3.072,5.3-3.912,5.3-6.336,5.3-7.56,4.8-8.472,3.492-8.472Zm5.076,6.42c0,1.224.564,2.124,1.848,2.124s1.848-.9,1.848-2.124v-4.3c0-1.236-.564-2.124-1.848-2.124s-1.848.888-1.848,2.124ZM9.12-6.384c0-.912.372-1.584,1.3-1.584s1.3.672,1.3,1.584v4.356c0,.924-.372,1.6-1.3,1.6s-1.3-.672-1.3-1.6Z"
           transform="translate(142.15 289.28)"
           fill="#fff"
           id="path138" />
      </g>
      <path
         d="M-22.142-.425v-1.45a2.816,2.816,0,0,0,.6.4,4.836,4.836,0,0,0,.732.3A5.831,5.831,0,0,0-20.04-1a4.308,4.308,0,0,0,.718.066,2.812,2.812,0,0,0,1.7-.421,1.425,1.425,0,0,0,.56-1.212,1.423,1.423,0,0,0-.187-.74,2.1,2.1,0,0,0-.516-.575,5.124,5.124,0,0,0-.78-.5q-.45-.238-.97-.5-.549-.278-1.025-.564a4.443,4.443,0,0,1-.828-.63,2.627,2.627,0,0,1-.553-.78,2.414,2.414,0,0,1-.2-1.022,2.4,2.4,0,0,1,.315-1.249A2.7,2.7,0,0,1-20.985-10a3.752,3.752,0,0,1,1.168-.513,5.349,5.349,0,0,1,1.337-.168,5.122,5.122,0,0,1,2.263.374v1.384A4.1,4.1,0,0,0-18.6-9.565a3.927,3.927,0,0,0-.806.084,2.276,2.276,0,0,0-.718.275,1.59,1.59,0,0,0-.513.491,1.3,1.3,0,0,0-.2.732,1.508,1.508,0,0,0,.15.7,1.705,1.705,0,0,0,.443.535,4.413,4.413,0,0,0,.714.469q.421.227.97.5t1.069.586a4.888,4.888,0,0,1,.886.681,3.027,3.027,0,0,1,.6.828,2.327,2.327,0,0,1,.223,1.04,2.637,2.637,0,0,1-.3,1.315,2.5,2.5,0,0,1-.82.875,3.583,3.583,0,0,1-1.19.487,6.518,6.518,0,0,1-1.421.15,5.79,5.79,0,0,1-.615-.04q-.366-.04-.747-.117a6.1,6.1,0,0,1-.721-.19A2.245,2.245,0,0,1-22.142-.425ZM-10.952,0h-1.23V-10.5h1.23ZM1.776,0H.267L-5.138-8.372a3.5,3.5,0,0,1-.337-.659h-.044A10.813,10.813,0,0,1-5.46-7.588V0h-1.23V-10.5h1.6L.165-2.263q.33.513.425.7H.619A11.112,11.112,0,0,1,.546-3.105v-7.4h1.23Zm11.4-.439a6.16,6.16,0,0,1-2.9.615A4.677,4.677,0,0,1,6.689-1.267,5.324,5.324,0,0,1,5.342-5.054,5.58,5.58,0,0,1,6.858-9.126,5.146,5.146,0,0,1,10.7-10.679a6.165,6.165,0,0,1,2.476.432v1.311a5.02,5.02,0,0,0-2.49-.63A3.821,3.821,0,0,0,7.755-8.357a4.553,4.553,0,0,0-1.124,3.23A4.332,4.332,0,0,0,7.682-2.069,3.576,3.576,0,0,0,10.439-.93a5.173,5.173,0,0,0,2.739-.7ZM22.384,0H16.817V-10.5h5.332V-9.39h-4.1V-5.9h3.794V-4.79H18.048v3.677h4.336Z"
         transform="translate(23 16)"
         fill="#090909"
         id="path142" />
      <g
         transform="translate(2.736 25.363)"
         id="g148">
        <line
           x1="5.533"
           fill="none"
           stroke="#090909"
           stroke-linecap="round"
           stroke-linejoin="round"
           stroke-width="1"
           id="line144" />
        <line
           x1="5.533"
           transform="translate(38.459)"
           stroke-width="1"
           stroke="#090909"
           stroke-linecap="round"
           stroke-linejoin="round"
           fill="none"
           id="line146" />
      </g>
    </g>
    <path
       d="M243.309,120.372,137.95,158.089s12.472,89.99,22.172,143.587,83.187,72.786,83.187,72.786S316.8,355.272,326.5,301.676s22.172-143.587,22.172-143.587Z"
       transform="translate(-1.998 -4.037)"
       fill="none"
       stroke="#090909"
       stroke-miterlimit="10"
       stroke-width="9.178"
       id="path152" />
    <g
       transform="translate(148.503 83.026)"
       id="g168">
      <g
         transform="translate(146.729)"
         id="g160">
        <path
           d="M307.377,121.136l23.925-6.652,3.146-5.291s-24.51,9.612-25.4,9.981S307.377,121.136,307.377,121.136Z"
           transform="translate(-307.377 -86.394)"
           fill="#ff5900"
           id="path154" />
        <path
           d="M308.97,116.338l26.625-10.529,4.893-7.927s-29.127,15.336-30.162,15.982A4.209,4.209,0,0,0,308.97,116.338Z"
           transform="translate(-307.472 -85.716)"
           fill="#ff5900"
           id="path156" />
        <path
           d="M310.625,110.392l30.792-16.269,5.044-9.182s-34.024,21.82-34.922,22.688A4.6,4.6,0,0,0,310.625,110.392Z"
           transform="translate(-307.572 -84.941)"
           fill="#ff5900"
           id="path158" />
      </g>
      <path
         d="M190.942,121.136l-23.925-6.652-3.146-5.291s24.51,9.612,25.4,9.981S190.942,121.136,190.942,121.136Z"
         transform="translate(-152.053 -86.394)"
         fill="#ff5900"
         id="path162" />
      <path
         d="M189.066,116.338l-26.625-10.529-4.893-7.927s29.127,15.336,30.162,15.982A4.209,4.209,0,0,1,189.066,116.338Z"
         transform="translate(-151.674 -85.716)"
         fill="#ff5900"
         id="path164" />
      <path
         d="M187.136,110.392,156.344,94.123,151.3,84.941s34.024,21.82,34.922,22.688A4.6,4.6,0,0,1,187.136,110.392Z"
         transform="translate(-151.3 -84.941)"
         fill="#ff5900"
         id="path166" />
    </g>
    <g
       transform="translate(135.382 115.764)"
       id="g172">
      <path
         d="M243.273,375a.589.589,0,0,1-.145-.019,169.8,169.8,0,0,1-38.1-16.354c-17.972-10.551-40.455-28.983-45.5-56.882-9.592-53-22.051-142.712-22.176-143.611a.57.57,0,0,1,.373-.616L243.08,119.8a.574.574,0,0,1,.385,0l105.36,37.717a.572.572,0,0,1,.373.616c-.125.9-12.586,90.615-22.176,143.611-5.05,27.9-27.533,46.331-45.5,56.882a169.8,169.8,0,0,1-38.1,16.354A.576.576,0,0,1,243.273,375ZM138.543,158.433c.981,7.036,12.873,92.1,22.106,143.1,9.322,51.5,78.968,71.3,82.625,72.3a169.34,169.34,0,0,0,37.691-16.209C298.72,347.2,320.929,329,325.9,301.538c9.233-51.01,21.126-136.069,22.106-143.1l-104.73-37.491Z"
         transform="translate(-137.343 -119.765)"
         fill="#4f4a47"
         id="path170" />
    </g>
    <g
       transform="matrix(1, 0, 0, 1, 98.14, 52.97)"
       filter="url(#g)"
       id="g176">
      <circle
         cx="66.462"
         cy="66.462"
         r="66.462"
         transform="translate(63.45 29.94) rotate(-13.02)"
         fill="#090909"
         id="circle174" />
    </g>
    <circle
       cx="62.792"
       cy="62.792"
       r="62.792"
       transform="translate(178.52 69.905)"
       fill="url(#a)"
       id="circle178" />
    <circle
       cx="57.357"
       cy="57.357"
       r="57.357"
       transform="translate(183.954 75.339)"
       fill="url(#j)"
       id="circle180" />
    <circle
       cx="54.254"
       cy="54.254"
       r="54.254"
       transform="translate(187.058 78.442)"
       fill="#090909"
       id="circle182" />
    <g
       transform="translate(213.219 104.921)"
       id="g188">
      <path
         d="M273.194,143.63l-1.925-1.879a.9.9,0,0,0-1.261.12l-6.392,6.551-28.175-27.489,6.392-6.552a.9.9,0,0,0,.088-1.263L240,111.239a.9.9,0,0,0-1.261.119l-15.376,15.76a.9.9,0,0,0-.088,1.264l1.926,1.878a.9.9,0,0,0,1.261-.118l6.392-6.552,28.175,27.489-6.392,6.552a.9.9,0,0,0-.088,1.263l1.926,1.879a.9.9,0,0,0,1.26-.119l15.377-15.76A.9.9,0,0,0,273.194,143.63ZM237.12,109.995l-1.63-1.59a.763.763,0,0,0-1.066.1L220.4,122.88a.763.763,0,0,0-.075,1.069l1.63,1.59a.763.763,0,0,0,1.066-.1l14.024-14.374A.763.763,0,0,0,237.12,109.995Zm-13.811,7.065a.764.764,0,0,0,1.067-.1l4.227-4.332a.763.763,0,0,0,.074-1.069l-1.63-1.59a.761.761,0,0,0-1.066.1l-4.227,4.332a.762.762,0,0,0-.074,1.068Zm49.845,37.893a.763.763,0,0,0-1.066.1l-4.227,4.332a.763.763,0,0,0-.074,1.069l1.629,1.59a.762.762,0,0,0,1.067-.1l4.227-4.332a.763.763,0,0,0,.074-1.069Zm2.984-6.889-1.629-1.59a.763.763,0,0,0-1.066.1l-14.025,14.374a.763.763,0,0,0-.074,1.069l1.63,1.59a.763.763,0,0,0,1.066-.1l14.024-14.374A.762.762,0,0,0,276.138,148.063Z"
         transform="translate(-220.14 -108.231)"
         fill="#fff"
         id="path184" />
      <path
         d="M223.021,146.574a.763.763,0,0,0-1.066-.1l-1.63,1.59a.763.763,0,0,0,.075,1.069l14.024,14.374a.763.763,0,0,0,1.066.1l1.63-1.59a.763.763,0,0,0-.075-1.069Zm1.355,8.479a.764.764,0,0,0-1.067-.1l-1.629,1.59a.763.763,0,0,0,.074,1.069l4.227,4.332a.761.761,0,0,0,1.066.1l1.63-1.59a.763.763,0,0,0-.074-1.069Zm47.712-38.094a.764.764,0,0,0,1.067.1l1.629-1.591a.762.762,0,0,0-.074-1.068l-4.227-4.332a.761.761,0,0,0-1.066-.1l-1.63,1.59a.763.763,0,0,0,.074,1.069Zm-27.68,20.183-11.56,11.279-6.392-6.551a.9.9,0,0,0-1.261-.12l-1.926,1.879a.9.9,0,0,0,.088,1.264l15.376,15.76a.9.9,0,0,0,1.261.119l1.926-1.879a.9.9,0,0,0-.088-1.263l-6.392-6.552,11.627-11.343Zm31.655-14.262L262.04,108.506a.763.763,0,0,0-1.066-.1l-1.63,1.59a.763.763,0,0,0,.074,1.069l14.025,14.374a.763.763,0,0,0,1.066.1l1.629-1.59A.763.763,0,0,0,276.064,122.88Zm-18.335-11.521a.9.9,0,0,0-1.26-.119l-1.926,1.879a.9.9,0,0,0,.088,1.263l6.392,6.552L249.4,132.276l2.66,2.594,11.56-11.279,6.392,6.552a.9.9,0,0,0,1.261.118l1.925-1.878a.9.9,0,0,0-.087-1.264Z"
         transform="translate(-220.14 -108.231)"
         fill="#fff"
         id="path186" />
    </g>
    <g
       transform="translate(234.757 90.744)"
       id="g194">
      <path
         d="M249.6,169.138l1.5,4.829,5.056-.067-4.13,2.918,1.626,4.788L249.6,178.58l-4.051,3.026,1.626-4.788L243.05,173.9l5.056.067Z"
         transform="translate(-243.05 -97.702)"
         fill="#ff5900"
         id="path190" />
      <path
         d="M249.6,93.15l1.5,4.829,5.056-.067-4.13,2.918,1.626,4.788-4.051-3.026-4.051,3.026,1.626-4.788-4.129-2.918,5.056.067Z"
         transform="translate(-243.05 -93.15)"
         fill="#ff5900"
         id="path192" />
    </g>
    <path
       d="M246.9,85.623a49.029,49.029,0,1,0,49.028,49.028A49.084,49.084,0,0,0,246.9,85.623Zm0,96.59a47.625,47.625,0,0,1-47.267-42.32h8.94a.733.733,0,1,0,0-1.467H199.5c-.079-1.006-.13-2.019-.145-3.041H212.78a.734.734,0,0,0,0-1.467H199.355c.015-1.022.066-2.035.145-3.04h9.072a.734.734,0,1,0,0-1.468h-8.94a47.556,47.556,0,0,1,94.533,0h-8.94a.734.734,0,0,0,0,1.468H294.3q.12,1.507.145,3.04H281.017a.734.734,0,0,0,0,1.467h13.425q-.023,1.533-.145,3.041h-9.072a.733.733,0,0,0,0,1.467h8.94A47.624,47.624,0,0,1,246.9,182.213Z"
       transform="translate(-5.587 -1.956)"
       fill="#ff5900"
       id="path196" />
    <g
       transform="translate(176.534 285.984)"
       id="g222">
      <g
         transform="translate(14.194)"
         id="g214">
        <path
           d="M196.216,304.413l9.413-1.21.381,2.976-3.183.41,2.289,17.859-3.046.391-2.289-17.859-3.183.409Z"
           transform="translate(-196.216 -300.971)"
           fill="#fff"
           id="path198" />
        <path
           d="M219.51,323.032a6.911,6.911,0,0,1-.5-2.549l-.279-3.29c-.165-1.943-.839-2.609-2.229-2.49l-1.057.09.723,8.523-3.059.261-1.778-20.937,4.618-.393c3.171-.27,4.668,1.2,4.942,4.43l.14,1.645c.182,2.153-.337,3.614-1.642,4.418,1.589.557,2.223,2.1,2.409,4.284l.275,3.229a6.614,6.614,0,0,0,.55,2.514Zm-4.861-17.662.546,6.431,1.2-.1c1.14-.1,1.79-.7,1.648-2.37l-.176-2.064c-.126-1.5-.655-2.113-1.74-2.021Z"
           transform="translate(-197.122 -300.912)"
           fill="#fff"
           id="path200" />
        <path
           d="M237.744,322l-3.1.137-.7-3.785-3.764.167-.361,3.83-2.817.125,2.189-21.125,4.49-.2Zm-7.3-6.347,2.957-.131-1.951-10.547Z"
           transform="translate(-198.06 -300.849)"
           fill="#fff"
           id="path202" />
        <path
           d="M242.437,300.921l3.07-.044.3,21.007-3.07.045Z"
           transform="translate(-198.984 -300.832)"
           fill="#fff"
           id="path204" />
        <path
           d="M254.166,306.664l-.239,15.216-2.764-.044.332-21.007,3.852.061,2.957,12.624.2-12.574,2.736.044-.332,21.007-3.154-.051Z"
           transform="translate(-199.507 -300.829)"
           fill="#fff"
           id="path206" />
        <path
           d="M267.657,301.23l3.067.144-.983,20.986-3.068-.143Z"
           transform="translate(-200.436 -300.853)"
           fill="#fff"
           id="path208" />
        <path
           d="M279.019,307.685l-1.207,15.171-2.755-.22,1.667-20.947,3.84.307,2.146,12.789,1-12.538,2.727.218-1.667,20.947-3.145-.252Z"
           transform="translate(-200.938 -300.881)"
           fill="#fff"
           id="path210" />
        <path
           d="M296.489,312.959l4.266.533-.828,6.611c-.418,3.336-2.207,5.047-5.2,4.675s-4.3-2.473-3.885-5.809L292.2,308.13c.417-3.335,2.207-5.047,5.2-4.674s4.3,2.472,3.886,5.808l-.253,2.025-2.881-.36.28-2.234c.186-1.488-.353-2.13-1.322-2.251s-1.65.368-1.836,1.857l-1.41,11.258c-.187,1.488.355,2.1,1.326,2.221s1.646-.338,1.832-1.828l.481-3.842-1.386-.173Z"
           transform="translate(-201.879 -300.983)"
           fill="#fff"
           id="path212" />
      </g>
      <g
         transform="translate(0 9.755)"
         id="g220">
        <path
           d="M189.247,316.307l1.926-3.515-3.781,1.331-2.748-2.918.1,4.007-3.624,1.712,3.841,1.146.508,3.975,2.276-3.3,3.938.745Z"
           transform="translate(-181.117 -311.205)"
           fill="#090909"
           id="path216" />
        <path
           d="M310.124,316.307l-1.926-3.515,3.781,1.331,2.748-2.918-.1,4.007,3.624,1.712-3.841,1.146-.508,3.975-2.276-3.3-3.938.745Z"
           transform="translate(-188.698 -311.205)"
           fill="#090909"
           id="path218" />
      </g>
    </g>
    <g
       transform="translate(104.594 205.083)"
       id="g352">
      <g
         transform="translate(2.82 2.82)"
         style="mix-blend-mode:multiply;isolation:isolate"
         id="g286"
         opacity="0.12">
        <path
           d="M341.55,238.774l8.078,9.377v15.492l-23.867-.815Z"
           transform="translate(-120.661 -219.032)"
           id="path224" />
        <path
           d="M107.594,241.715l24.385-8.727,2.436,6.806-18.542,6.635,7.475,20.883,17.13-6.13,2.4,6.712-17.13,6.131,10.177,28.433-5.845,2.092Z"
           transform="translate(-107.594 -218.685)"
           id="path226"
           stroke-linejoin="round"
           stroke-linecap="round"
           stroke-width="12.902"
           stroke="#000" />
        <path
           d="M157.14,227.46,171.6,292.616l-6.06,1.345-14.464-65.155Z"
           transform="translate(-110.199 -218.354)"
           id="path228"
           stroke-linejoin="round"
           stroke-linecap="round"
           stroke-width="12.902"
           stroke="#000" />
        <path
           d="M184.953,229.789l-14.5,1.917-.961-7.264,35.3-4.668.961,7.265-14.572,1.927,7.789,58.905-6.224.824Z"
           transform="translate(-111.301 -217.894)"
           id="path230"
           stroke-linejoin="round"
           stroke-linecap="round"
           stroke-width="12.902"
           stroke="#000" />
        <path
           d="M221.992,285.474l-1.817-66.713,6.775-.185,16.326,33.33a219.293,219.293,0,0,1,9.221,21.441l.139-.1c-.812-8.892-1.177-17.006-1.46-27.4l-.761-27.913,5.848-.16,1.818,66.712-6.277.172L235.62,251.224c-3.555-7.331-6.972-14.865-9.594-22.024l-.212.1c.587,8.4.948,16.417,1.249,27.5l.777,28.506Z"
           transform="translate(-114.337 -217.774)"
           id="path232"
           stroke-linejoin="round"
           stroke-linecap="round"
           stroke-width="12.902"
           stroke="#000" />
        <path
           d="M299.237,255.5l-18.649-1.278-1.645,24.007,20.785,1.425-.494,7.212-26.977-1.848,4.563-66.587,25.909,1.775-.494,7.212-19.717-1.352-1.442,21.043,18.649,1.278Z"
           transform="translate(-117.456 -217.813)"
           id="path234"
           stroke-linejoin="round"
           stroke-linecap="round"
           stroke-width="12.902"
           stroke="#000" />
        <path
           d="M310.457,277.674a17.763,17.763,0,0,0,10.26,6.132c6.263,1.047,10.691-2.932,11.8-9.572,1.029-6.153-.917-10.092-6.749-14.58-7.1-5.1-10.958-11.469-9.406-20.747,1.715-10.255,9.112-16.849,18.332-15.308a17.107,17.107,0,0,1,9.946,4.975l-2.849,6.652a15.252,15.252,0,0,0-8.486-4.631c-6.474-1.082-9.835,3.878-10.586,8.37-1.03,6.152,1.349,9.662,7.306,14.273,7.3,5.638,10.487,11.691,8.87,21.359-1.7,10.157-8.589,18.041-19.779,16.171-4.575-.765-9.261-3.456-11.4-6.224Z"
           transform="translate(-119.58 -218.11)"
           id="path236"
           stroke-linejoin="round"
           stroke-linecap="round"
           stroke-width="12.902"
           stroke="#000" />
        <path
           d="M348.218,284.672a17.767,17.767,0,0,0,9.287,7.525c6.052,1.924,11-1.388,13.036-7.806,1.891-5.945.523-10.12-4.615-15.391-6.31-6.058-9.223-12.908-6.374-21.873,3.148-9.909,11.4-15.39,20.311-12.558a17.112,17.112,0,0,1,9.143,6.335l-3.762,6.182A15.247,15.247,0,0,0,377.5,241.3c-6.256-1.988-10.286,2.445-11.666,6.787-1.889,5.945-.032,9.757,5.212,15.166,6.432,6.616,8.726,13.062,5.756,22.4-3.119,9.815-11.054,16.645-21.865,13.208-4.42-1.405-8.678-4.733-10.406-7.777Z"
           transform="translate(-121.785 -218.735)"
           id="path238"
           stroke-linejoin="round"
           stroke-linecap="round"
           stroke-width="12.902"
           stroke="#000" />
        <path
           d="M147.488,285.395s-3.586,18.379-.71,17.353c12.7-4.533,32.059-8.439,45.544-9.622,14.386-1.262,45.424-5.511,69.217-2.245l-2.026-4.393,29.367-1.522,8.93-20.839-16.372-23.984-23.455.786S187.678,225.3,142.433,246.68l-2.976,33.961Z"
           transform="translate(-109.502 -218.831)"
           id="path240" />
        <g
           id="g256"
           opacity="0.48">
          <path
             d="M107.594,241.715l24.385-8.727,2.436,6.806-18.542,6.635,7.475,20.883,17.13-6.13,2.4,6.712-17.13,6.131,10.177,28.433-5.845,2.092Z"
             transform="translate(-107.594 -218.685)"
             id="path242"
             stroke-linejoin="round"
             stroke-linecap="round"
             stroke-width="4"
             stroke="#000"
             fill="none" />
          <path
             d="M157.14,227.46,171.6,292.616l-6.06,1.345-14.464-65.155Z"
             transform="translate(-110.199 -218.354)"
             id="path244"
             stroke-linejoin="round"
             stroke-linecap="round"
             stroke-width="4"
             stroke="#000"
             fill="none" />
          <path
             d="M184.953,229.789l-14.5,1.917-.961-7.264,35.3-4.668.961,7.265-14.572,1.927,7.789,58.905-6.224.824Z"
             transform="translate(-111.301 -217.894)"
             id="path246"
             stroke-linejoin="round"
             stroke-linecap="round"
             stroke-width="4"
             stroke="#000"
             fill="none" />
          <path
             d="M221.992,285.474l-1.817-66.713,6.775-.185,16.326,33.33a219.293,219.293,0,0,1,9.221,21.441l.139-.1c-.812-8.892-1.177-17.006-1.46-27.4l-.761-27.913,5.848-.16,1.818,66.712-6.277.172L235.62,251.224c-3.555-7.331-6.972-14.865-9.594-22.024l-.212.1c.587,8.4.948,16.417,1.249,27.5l.777,28.506Z"
             transform="translate(-114.337 -217.774)"
             id="path248"
             stroke-linejoin="round"
             stroke-linecap="round"
             stroke-width="4"
             stroke="#000"
             fill="none" />
          <path
             d="M299.237,255.5l-18.649-1.278-1.645,24.007,20.785,1.425-.494,7.212-26.977-1.848,4.563-66.587,25.909,1.775-.494,7.212-19.717-1.352-1.442,21.043,18.649,1.278Z"
             transform="translate(-117.456 -217.813)"
             id="path250"
             stroke-linejoin="round"
             stroke-linecap="round"
             stroke-width="4"
             stroke="#000"
             fill="none" />
          <path
             d="M310.457,277.674a17.763,17.763,0,0,0,10.26,6.132c6.263,1.047,10.691-2.932,11.8-9.572,1.029-6.153-.917-10.092-6.749-14.58-7.1-5.1-10.958-11.469-9.406-20.747,1.715-10.255,9.112-16.849,18.332-15.308a17.107,17.107,0,0,1,9.946,4.975l-2.849,6.652a15.252,15.252,0,0,0-8.486-4.631c-6.474-1.082-9.835,3.878-10.586,8.37-1.03,6.152,1.349,9.662,7.306,14.273,7.3,5.638,10.487,11.691,8.87,21.359-1.7,10.157-8.589,18.041-19.779,16.171-4.575-.765-9.261-3.456-11.4-6.224Z"
             transform="translate(-119.58 -218.11)"
             id="path252"
             stroke-linejoin="round"
             stroke-linecap="round"
             stroke-width="4"
             stroke="#000"
             fill="none" />
          <path
             d="M348.218,284.672a17.767,17.767,0,0,0,9.287,7.525c6.052,1.924,11-1.388,13.036-7.806,1.891-5.945.523-10.12-4.615-15.391-6.31-6.058-9.223-12.908-6.374-21.873,3.148-9.909,11.4-15.39,20.311-12.558a17.112,17.112,0,0,1,9.143,6.335l-3.762,6.182A15.247,15.247,0,0,0,377.5,241.3c-6.256-1.988-10.286,2.445-11.666,6.787-1.889,5.945-.032,9.757,5.212,15.166,6.432,6.616,8.726,13.062,5.756,22.4-3.119,9.815-11.054,16.645-21.865,13.208-4.42-1.405-8.678-4.733-10.406-7.777Z"
             transform="translate(-121.785 -218.735)"
             id="path254"
             stroke-linejoin="round"
             stroke-linecap="round"
             stroke-width="4"
             stroke="#000"
             fill="none" />
        </g>
        <path
           d="M107.594,241.715l24.385-8.727,2.436,6.806-18.542,6.635,7.475,20.883,17.13-6.13,2.4,6.712-17.13,6.131,10.177,28.433-5.845,2.092Z"
           transform="translate(-107.594 -218.685)"
           id="path258" />
        <path
           d="M157.14,227.46,171.6,292.616l-6.06,1.345-14.464-65.155Z"
           transform="translate(-110.199 -218.354)"
           id="path260" />
        <path
           d="M184.953,229.789l-14.5,1.917-.961-7.264,35.3-4.668.961,7.265-14.572,1.927,7.789,58.905-6.224.824Z"
           transform="translate(-111.301 -217.894)"
           id="path262" />
        <path
           d="M221.992,285.474l-1.817-66.713,6.775-.185,16.326,33.33a219.293,219.293,0,0,1,9.221,21.441l.139-.1c-.812-8.892-1.177-17.006-1.46-27.4l-.761-27.913,5.848-.16,1.818,66.712-6.277.172L235.62,251.224c-3.555-7.331-6.972-14.865-9.594-22.024l-.212.1c.587,8.4.948,16.417,1.249,27.5l.777,28.506Z"
           transform="translate(-114.337 -217.774)"
           id="path264" />
        <path
           d="M299.237,255.5l-18.649-1.278-1.645,24.007,20.785,1.425-.494,7.212-26.977-1.848,4.563-66.587,25.909,1.775-.494,7.212-19.717-1.352-1.442,21.043,18.649,1.278Z"
           transform="translate(-117.456 -217.813)"
           id="path266" />
        <path
           d="M310.457,277.674a17.763,17.763,0,0,0,10.26,6.132c6.263,1.047,10.691-2.932,11.8-9.572,1.029-6.153-.917-10.092-6.749-14.58-7.1-5.1-10.958-11.469-9.406-20.747,1.715-10.255,9.112-16.849,18.332-15.308a17.107,17.107,0,0,1,9.946,4.975l-2.849,6.652a15.252,15.252,0,0,0-8.486-4.631c-6.474-1.082-9.835,3.878-10.586,8.37-1.03,6.152,1.349,9.662,7.306,14.273,7.3,5.638,10.487,11.691,8.87,21.359-1.7,10.157-8.589,18.041-19.779,16.171-4.575-.765-9.261-3.456-11.4-6.224Z"
           transform="translate(-119.58 -218.11)"
           id="path268" />
        <path
           d="M348.218,284.672a17.767,17.767,0,0,0,9.287,7.525c6.052,1.924,11-1.388,13.036-7.806,1.891-5.945.523-10.12-4.615-15.391-6.31-6.058-9.223-12.908-6.374-21.873,3.148-9.909,11.4-15.39,20.311-12.558a17.112,17.112,0,0,1,9.143,6.335l-3.762,6.182A15.247,15.247,0,0,0,377.5,241.3c-6.256-1.988-10.286,2.445-11.666,6.787-1.889,5.945-.032,9.757,5.212,15.166,6.432,6.616,8.726,13.062,5.756,22.4-3.119,9.815-11.054,16.645-21.865,13.208-4.42-1.405-8.678-4.733-10.406-7.777Z"
           transform="translate(-121.785 -218.735)"
           id="path270" />
        <path
           d="M107.594,241.715l24.385-8.727,2.436,6.806-18.542,6.635,7.475,20.883,17.13-6.13,2.4,6.712-17.13,6.131,10.177,28.433-5.845,2.092Z"
           transform="translate(-107.594 -218.685)"
           id="path272" />
        <path
           d="M157.14,227.46,171.6,292.616l-6.06,1.345-14.464-65.155Z"
           transform="translate(-110.199 -218.354)"
           id="path274" />
        <path
           d="M184.953,229.789l-14.5,1.917-.961-7.264,35.3-4.668.961,7.265-14.572,1.927,7.789,58.905-6.224.824Z"
           transform="translate(-111.301 -217.894)"
           id="path276" />
        <path
           d="M221.992,285.474l-1.817-66.713,6.775-.185,16.326,33.33a219.293,219.293,0,0,1,9.221,21.441l.139-.1c-.813-8.892-1.177-17.006-1.46-27.4l-.761-27.913,5.848-.16,1.818,66.712-6.277.172L235.62,251.224c-3.555-7.331-6.972-14.865-9.594-22.024l-.212.1c.587,8.4.948,16.417,1.249,27.5l.777,28.506Z"
           transform="translate(-114.337 -217.774)"
           id="path278" />
        <path
           d="M299.237,255.5l-18.649-1.278-1.645,24.007,20.785,1.425-.494,7.212-26.977-1.848,4.563-66.587,25.909,1.775-.494,7.212-19.717-1.352-1.442,21.043,18.649,1.278Z"
           transform="translate(-117.456 -217.813)"
           id="path280" />
        <path
           d="M310.457,277.674a17.763,17.763,0,0,0,10.26,6.132c6.263,1.047,10.691-2.932,11.8-9.572,1.029-6.153-.917-10.092-6.749-14.58-7.1-5.1-10.958-11.469-9.406-20.747,1.715-10.255,9.112-16.849,18.332-15.308a17.107,17.107,0,0,1,9.946,4.975l-2.849,6.652a15.252,15.252,0,0,0-8.486-4.631c-6.474-1.082-9.835,3.878-10.586,8.37-1.03,6.152,1.349,9.662,7.306,14.273,7.3,5.638,10.487,11.691,8.87,21.359-1.7,10.157-8.589,18.041-19.779,16.171-4.575-.765-9.261-3.456-11.4-6.224Z"
           transform="translate(-119.58 -218.11)"
           id="path282" />
        <path
           d="M348.218,284.672a17.767,17.767,0,0,0,9.287,7.525c6.052,1.924,11-1.388,13.036-7.806,1.891-5.945.523-10.12-4.615-15.391-6.31-6.058-9.223-12.908-6.374-21.873,3.148-9.909,11.4-15.39,20.311-12.558a17.112,17.112,0,0,1,9.143,6.335l-3.762,6.182A15.247,15.247,0,0,0,377.5,241.3c-6.256-1.988-10.286,2.445-11.666,6.787-1.889,5.945-.032,9.757,5.212,15.166,6.432,6.616,8.726,13.062,5.756,22.4-3.119,9.815-11.054,16.645-21.865,13.208-4.42-1.405-8.678-4.733-10.406-7.777Z"
           transform="translate(-121.785 -218.735)"
           id="path284" />
      </g>
      <path
         d="M104.594,238.715l24.385-8.727,2.436,6.806-18.542,6.635,7.475,20.883,17.13-6.13,2.4,6.712-17.13,6.131,10.177,28.433-5.845,2.092Z"
         transform="translate(-104.594 -215.685)"
         id="path290"
         stroke-linejoin="round"
         stroke-linecap="round"
         stroke-width="12.902"
         stroke="#090909"
         fill="#090909" />
      <path
         d="M154.14,224.46,168.6,289.616l-6.06,1.345-14.464-65.155Z"
         transform="translate(-107.199 -215.354)"
         id="path292"
         stroke-linejoin="round"
         stroke-linecap="round"
         stroke-width="12.902"
         stroke="#090909"
         fill="#090909" />
      <path
         d="M181.953,226.789l-14.5,1.917-.961-7.264,35.3-4.668.961,7.265-14.572,1.927,7.789,58.905-6.224.824Z"
         transform="translate(-108.301 -214.894)"
         id="path294"
         stroke-linejoin="round"
         stroke-linecap="round"
         stroke-width="12.902"
         stroke="#090909"
         fill="#090909" />
      <path
         d="M218.992,282.474l-1.817-66.713,6.775-.185,16.326,33.33a219.3,219.3,0,0,1,9.221,21.441l.139-.1c-.813-8.892-1.177-17.006-1.46-27.4l-.761-27.913,5.848-.16,1.818,66.712-6.277.172L232.62,248.224c-3.555-7.331-6.972-14.865-9.594-22.024l-.212.1c.587,8.4.948,16.417,1.249,27.5l.777,28.506Z"
         transform="translate(-111.337 -214.774)"
         id="path296"
         stroke-linejoin="round"
         stroke-linecap="round"
         stroke-width="12.902"
         stroke="#090909"
         fill="#090909" />
      <path
         d="M296.237,252.5l-18.649-1.278-1.645,24.007,20.785,1.425-.494,7.212-26.977-1.848,4.563-66.587,25.909,1.775-.494,7.212-19.717-1.352-1.442,21.043,18.649,1.278Z"
         transform="translate(-114.456 -214.813)"
         id="path298"
         stroke-linejoin="round"
         stroke-linecap="round"
         stroke-width="12.902"
         stroke="#090909"
         fill="#090909" />
      <path
         d="M307.457,274.674a17.763,17.763,0,0,0,10.26,6.132c6.263,1.047,10.691-2.932,11.8-9.572,1.028-6.153-.917-10.092-6.749-14.58-7.1-5.1-10.958-11.469-9.406-20.747,1.715-10.255,9.112-16.849,18.332-15.308a17.107,17.107,0,0,1,9.946,4.975l-2.849,6.652a15.252,15.252,0,0,0-8.486-4.631c-6.474-1.082-9.835,3.878-10.586,8.37-1.03,6.152,1.349,9.662,7.306,14.273,7.3,5.638,10.487,11.691,8.87,21.359-1.7,10.157-8.589,18.041-19.779,16.171-4.575-.765-9.261-3.456-11.4-6.224Z"
         transform="translate(-116.58 -215.11)"
         id="path300"
         stroke-linejoin="round"
         stroke-linecap="round"
         stroke-width="12.902"
         stroke="#090909"
         fill="#090909" />
      <path
         d="M345.218,281.672a17.767,17.767,0,0,0,9.287,7.525c6.052,1.924,11-1.388,13.036-7.806,1.891-5.945.523-10.12-4.615-15.391-6.31-6.058-9.223-12.908-6.374-21.873,3.148-9.909,11.4-15.39,20.311-12.558a17.112,17.112,0,0,1,9.143,6.335l-3.762,6.182A15.247,15.247,0,0,0,374.5,238.3c-6.256-1.988-10.286,2.445-11.666,6.787-1.889,5.945-.032,9.757,5.212,15.166,6.432,6.616,8.726,13.062,5.756,22.4-3.119,9.815-11.054,16.645-21.865,13.208-4.42-1.405-8.678-4.733-10.406-7.777Z"
         transform="translate(-118.785 -215.735)"
         id="path302"
         stroke-linejoin="round"
         stroke-linecap="round"
         stroke-width="12.902"
         stroke="#090909"
         fill="#090909" />
      <g
         id="g320"
         opacity="0.48">
        <path
           d="M104.594,238.715l24.385-8.727,2.436,6.806-18.542,6.635,7.475,20.883,17.13-6.13,2.4,6.712-17.13,6.131,10.177,28.433-5.845,2.092Z"
           transform="translate(-104.594 -215.685)"
           id="path306"
           stroke-linejoin="round"
           stroke-linecap="round"
           stroke-width="4"
           stroke="#919191"
           fill="none" />
        <path
           d="M154.14,224.46,168.6,289.616l-6.06,1.345-14.464-65.155Z"
           transform="translate(-107.199 -215.354)"
           id="path308"
           stroke-linejoin="round"
           stroke-linecap="round"
           stroke-width="4"
           stroke="#919191"
           fill="none" />
        <path
           d="M181.953,226.789l-14.5,1.917-.961-7.264,35.3-4.668.961,7.265-14.572,1.927,7.789,58.905-6.224.824Z"
           transform="translate(-108.301 -214.894)"
           id="path310"
           stroke-linejoin="round"
           stroke-linecap="round"
           stroke-width="4"
           stroke="#919191"
           fill="none" />
        <path
           d="M218.992,282.474l-1.817-66.713,6.775-.185,16.326,33.33a219.3,219.3,0,0,1,9.221,21.441l.139-.1c-.813-8.892-1.177-17.006-1.46-27.4l-.761-27.913,5.848-.16,1.818,66.712-6.277.172L232.62,248.224c-3.555-7.331-6.972-14.865-9.594-22.024l-.212.1c.587,8.4.948,16.417,1.249,27.5l.777,28.506Z"
           transform="translate(-111.337 -214.774)"
           id="path312"
           stroke-linejoin="round"
           stroke-linecap="round"
           stroke-width="4"
           stroke="#919191"
           fill="none" />
        <path
           d="M296.237,252.5l-18.649-1.278-1.645,24.007,20.785,1.425-.494,7.212-26.977-1.848,4.563-66.587,25.909,1.775-.494,7.212-19.717-1.352-1.442,21.043,18.649,1.278Z"
           transform="translate(-114.456 -214.813)"
           id="path314"
           stroke-linejoin="round"
           stroke-linecap="round"
           stroke-width="4"
           stroke="#919191"
           fill="none" />
        <path
           d="M307.457,274.674a17.763,17.763,0,0,0,10.26,6.132c6.263,1.047,10.691-2.932,11.8-9.572,1.028-6.153-.917-10.092-6.749-14.58-7.1-5.1-10.958-11.469-9.406-20.747,1.715-10.255,9.112-16.849,18.332-15.308a17.107,17.107,0,0,1,9.946,4.975l-2.849,6.652a15.252,15.252,0,0,0-8.486-4.631c-6.474-1.082-9.835,3.878-10.586,8.37-1.03,6.152,1.349,9.662,7.306,14.273,7.3,5.638,10.487,11.691,8.87,21.359-1.7,10.157-8.589,18.041-19.779,16.171-4.575-.765-9.261-3.456-11.4-6.224Z"
           transform="translate(-116.58 -215.11)"
           id="path316"
           stroke-linejoin="round"
           stroke-linecap="round"
           stroke-width="4"
           stroke="#919191"
           fill="none" />
        <path
           d="M345.218,281.672a17.767,17.767,0,0,0,9.287,7.525c6.052,1.924,11-1.388,13.036-7.806,1.891-5.945.523-10.12-4.615-15.391-6.31-6.058-9.223-12.908-6.374-21.873,3.148-9.909,11.4-15.39,20.311-12.558a17.112,17.112,0,0,1,9.143,6.335l-3.762,6.182A15.247,15.247,0,0,0,374.5,238.3c-6.256-1.988-10.286,2.445-11.666,6.787-1.889,5.945-.032,9.757,5.212,15.166,6.432,6.616,8.726,13.062,5.756,22.4-3.119,9.815-11.054,16.645-21.865,13.208-4.42-1.405-8.678-4.733-10.406-7.777Z"
           transform="translate(-118.785 -215.735)"
           id="path318"
           stroke-linejoin="round"
           stroke-linecap="round"
           stroke-width="4"
           stroke="#919191"
           fill="none" />
      </g>
      <path
         d="M104.594,238.715l24.385-8.727,2.436,6.806-18.542,6.635,7.475,20.883,17.13-6.13,2.4,6.712-17.13,6.131,10.177,28.433-5.845,2.092Z"
         transform="translate(-104.594 -215.685)"
         id="path322"
         fill="#fcfcfc" />
      <path
         d="M154.14,224.46,168.6,289.616l-6.06,1.345-14.464-65.155Z"
         transform="translate(-107.199 -215.354)"
         id="path324"
         fill="#fcfcfc" />
      <path
         d="M181.953,226.789l-14.5,1.917-.961-7.264,35.3-4.668.961,7.265-14.572,1.927,7.789,58.905-6.224.824Z"
         transform="translate(-108.301 -214.894)"
         id="path326"
         fill="#fcfcfc" />
      <path
         d="M218.992,282.474l-1.817-66.713,6.775-.185,16.326,33.33a219.3,219.3,0,0,1,9.221,21.441l.139-.1c-.813-8.892-1.177-17.006-1.46-27.4l-.761-27.913,5.848-.16,1.818,66.712-6.277.172L232.62,248.224c-3.555-7.331-6.972-14.865-9.594-22.024l-.212.1c.587,8.4.948,16.417,1.249,27.5l.777,28.506Z"
         transform="translate(-111.337 -214.774)"
         id="path328"
         fill="#fcfcfc" />
      <path
         d="M296.237,252.5l-18.649-1.278-1.645,24.007,20.785,1.425-.494,7.212-26.977-1.848,4.563-66.587,25.909,1.775-.494,7.212-19.717-1.352-1.442,21.043,18.649,1.278Z"
         transform="translate(-114.456 -214.813)"
         id="path330"
         fill="#fcfcfc" />
      <path
         d="M307.457,274.674a17.763,17.763,0,0,0,10.26,6.132c6.263,1.047,10.691-2.932,11.8-9.572,1.028-6.153-.917-10.092-6.749-14.58-7.1-5.1-10.958-11.469-9.406-20.747,1.715-10.255,9.112-16.849,18.332-15.308a17.107,17.107,0,0,1,9.946,4.975l-2.849,6.652a15.252,15.252,0,0,0-8.486-4.631c-6.474-1.082-9.835,3.878-10.586,8.37-1.03,6.152,1.349,9.662,7.306,14.273,7.3,5.638,10.487,11.691,8.87,21.359-1.7,10.157-8.589,18.041-19.779,16.171-4.575-.765-9.261-3.456-11.4-6.224Z"
         id="path332"
         fill="#fcfcfc"
         transform="translate(-116.58 -215.11)" />
      <path
         d="M345.218,281.672a17.767,17.767,0,0,0,9.287,7.525c6.052,1.924,11-1.388,13.036-7.806,1.891-5.945.523-10.12-4.615-15.391-6.31-6.058-9.223-12.908-6.374-21.873,3.148-9.909,11.4-15.39,20.311-12.558a17.112,17.112,0,0,1,9.143,6.335l-3.762,6.182A15.247,15.247,0,0,0,374.5,238.3c-6.256-1.988-10.286,2.445-11.666,6.787-1.889,5.945-.032,9.757,5.212,15.166,6.432,6.616,8.726,13.062,5.756,22.4-3.119,9.815-11.054,16.645-21.865,13.208-4.42-1.405-8.678-4.733-10.406-7.777Z"
         transform="translate(-118.785 -215.735)"
         id="path334"
         fill="#fcfcfc" />
      <g
         id="g350"
         opacity="0.6">
        <path
           d="M104.594,238.715l24.385-8.727,2.436,6.806-18.542,6.635,7.475,20.883,17.13-6.13,2.4,6.712-17.13,6.131,10.177,28.433-5.845,2.092Z"
           transform="translate(-104.594 -215.685)"
           id="path336"
           fill="url(#k)" />
        <path
           d="M154.14,224.46,168.6,289.616l-6.06,1.345-14.464-65.155Z"
           transform="translate(-107.199 -215.354)"
           id="path338"
           fill="url(#l)" />
        <path
           d="M181.953,226.789l-14.5,1.917-.961-7.264,35.3-4.668.961,7.265-14.572,1.927,7.789,58.905-6.224.824Z"
           transform="translate(-108.301 -214.894)"
           id="path340"
           fill="url(#m)" />
        <path
           d="M218.992,282.474l-1.817-66.713,6.775-.185,16.326,33.33a219.3,219.3,0,0,1,9.221,21.441l.139-.1c-.813-8.892-1.177-17.006-1.46-27.4l-.761-27.913,5.848-.16,1.818,66.712-6.277.172L232.62,248.224c-3.555-7.331-6.972-14.865-9.594-22.024l-.212.1c.587,8.4.948,16.417,1.249,27.5l.777,28.506Z"
           transform="translate(-111.337 -214.774)"
           id="path342"
           fill="url(#n)" />
        <path
           d="M296.237,252.5l-18.649-1.278-1.645,24.007,20.785,1.425-.494,7.212-26.977-1.848,4.563-66.587,25.909,1.775-.494,7.212-19.717-1.352-1.442,21.043,18.649,1.278Z"
           transform="translate(-114.456 -214.813)"
           id="path344"
           fill="url(#o)" />
        <path
           d="M307.457,274.674a17.763,17.763,0,0,0,10.26,6.132c6.263,1.047,10.691-2.932,11.8-9.572,1.028-6.153-.917-10.092-6.749-14.58-7.1-5.1-10.958-11.469-9.406-20.747,1.715-10.255,9.112-16.849,18.332-15.308a17.107,17.107,0,0,1,9.946,4.975l-2.849,6.652a15.252,15.252,0,0,0-8.486-4.631c-6.474-1.082-9.835,3.878-10.586,8.37-1.03,6.152,1.349,9.662,7.306,14.273,7.3,5.638,10.487,11.691,8.87,21.359-1.7,10.157-8.589,18.041-19.779,16.171-4.575-.765-9.261-3.456-11.4-6.224Z"
           transform="translate(-116.58 -215.11)"
           id="path346"
           fill="url(#p)" />
        <path
           d="M345.218,281.672a17.767,17.767,0,0,0,9.287,7.525c6.052,1.924,11-1.388,13.036-7.806,1.891-5.945.523-10.12-4.615-15.391-6.31-6.058-9.223-12.908-6.374-21.873,3.148-9.909,11.4-15.39,20.311-12.558a17.112,17.112,0,0,1,9.143,6.335l-3.762,6.182A15.247,15.247,0,0,0,374.5,238.3c-6.256-1.988-10.286,2.445-11.666,6.787-1.889,5.945-.032,9.757,5.212,15.166,6.432,6.616,8.726,13.062,5.756,22.4-3.119,9.815-11.054,16.645-21.865,13.208-4.42-1.405-8.678-4.733-10.406-7.777Z"
           transform="translate(-118.785 -215.735)"
           id="path348"
           fill="url(#q)" />
      </g>
    </g>
  </g>
</svg>
