<?xml version="1.0" encoding="UTF-8" standalone="no"?>
<svg
   xmlns:dc="http://purl.org/dc/elements/1.1/"
   xmlns:cc="http://creativecommons.org/ns#"
   xmlns:rdf="http://www.w3.org/1999/02/22-rdf-syntax-ns#"
   xmlns:svg="http://www.w3.org/2000/svg"
   xmlns="http://www.w3.org/2000/svg"
   xmlns:sodipodi="http://sodipodi.sourceforge.net/DTD/sodipodi-0.dtd"
   xmlns:inkscape="http://www.inkscape.org/namespaces/inkscape"
   width="1000"
   height="1000"
   viewBox="0 0 264.58333 264.58334"
   version="1.1"
   id="svg8"
   sodipodi:docname="whatsapp2.svg"
   inkscape:version="0.92.4 (5da689c313, 2019-01-14)">
  <sodipodi:namedview
     pagecolor="#ffffff"
     bordercolor="#666666"
     borderopacity="1"
     objecttolerance="10"
     gridtolerance="10"
     guidetolerance="10"
     inkscape:pageopacity="0"
     inkscape:pageshadow="2"
     inkscape:window-width="1366"
     inkscape:window-height="705"
     id="namedview10"
     showgrid="false"
     inkscape:zoom="0.236"
     inkscape:cx="-355.48755"
     inkscape:cy="540.44684"
     inkscape:window-x="-8"
     inkscape:window-y="173"
     inkscape:window-maximized="1"
     inkscape:current-layer="layer2" />
  <defs
     id="defs2" />
  <metadata
     id="metadata5">
    <rdf:RDF>
      <cc:Work
         rdf:about="">
        <dc:format>image/svg+xml</dc:format>
        <dc:type
           rdf:resource="http://purl.org/dc/dcmitype/StillImage" />
        <dc:title />
      </cc:Work>
    </rdf:RDF>
  </metadata>
  <g
     inkscape:groupmode="layer"
     id="layer1"
     inkscape:label="Fundo"
     style="display:inline" />
  <g
     inkscape:groupmode="layer"
     id="layer2"
     inkscape:label="Ãcone"
     style="display:inline">
    <path
       style="opacity:1;fill:#f15000;fill-opacity:1;stroke:#d30014;stroke-width:0.13195735;stroke-linecap:square;stroke-linejoin:miter;stroke-miterlimit:4;stroke-dasharray:none;stroke-opacity:1;paint-order:markers fill stroke"
       d="m 117.57609,236.50463 c -11.12264,-2.15034 -24.344108,-6.60968 -32.919067,-11.10297 l -9.881713,-5.17802 -18.977773,6.00547 c -10.437777,3.303 -19.235753,5.74748 -19.551062,5.43218 -0.315306,-0.31531 2.212314,-8.74136 5.616937,-18.72457 6.029072,-17.67875 6.131314,-18.24155 3.927396,-21.61832 -4.65584,-7.13356 -12.67132,-24.85203 -14.701285,-32.49767 -1.156172,-4.35459 -2.438093,-13.8798 -2.848708,-21.16713 -2.74736,-48.758286 30.224256,-93.401339 78.607715,-106.433619 14.10037,-3.797989 39.02452,-3.797989 53.12489,0 25.32889,6.822441 47.29909,22.69939 61.82658,44.679492 29.09137,44.015317 20.12639,103.234677 -20.751,137.073347 -9.99332,8.27255 -28.62931,17.99468 -40.58677,21.17354 -7.75219,2.06089 -36.30344,3.63091 -42.88614,2.35827 z m 65.73552,-48.54439 c 10.45837,-5.32388 14.75846,-12.01202 14.75846,-22.95455 0,-4.29808 -0.31247,-4.53759 -15.07553,-11.55498 -8.29154,-3.94126 -15.66682,-7.16592 -16.38951,-7.16592 -0.7227,0 -4.1819,3.52911 -7.68711,7.84248 -3.97899,4.89636 -7.40931,7.87065 -9.13141,7.91745 -1.51705,0.0412 -6.56442,-1.80839 -11.21637,-4.11023 -9.41451,-4.65843 -27.83315,-22.03847 -32.15125,-30.33829 l -2.51446,-4.83306 4.29897,-4.89627 c 7.78925,-8.87146 7.83021,-9.56632 1.45573,-24.693533 -7.27902,-17.273795 -8.04739,-18.14552 -15.993963,-18.14552 -5.240484,0 -7.174439,0.72612 -11.089603,4.163676 -7.816382,6.862879 -10.475523,13.326375 -10.501919,25.526727 -0.01978,9.13782 0.530935,11.70933 4.097652,19.13382 8.748997,18.21192 30.781763,42.79519 47.134793,52.59108 8.41021,5.03795 20.31302,10.11584 31.87784,13.5995 9.8561,2.96895 19.62552,2.24569 28.12768,-2.08238 z"
       id="path841"
       inkscape:connector-curvature="0" />
  </g>
</svg>
